<mxfile host="app.diagrams.net" modified="2024-01-29T06:06:11.194Z" agent="Mozilla/5.0 (Windows NT 10.0; Win64; x64) AppleWebKit/537.36 (KHTML, like Gecko) Chrome/120.0.0.0 Safari/537.36" etag="eApuj8wWvVhWckGVUBeg" version="23.0.2" type="device">
  <diagram name="페이지-1" id="M4Id_1pIdkz0X55tzxJu">
    <mxGraphModel dx="3345" dy="1410" grid="1" gridSize="10" guides="1" tooltips="1" connect="1" arrows="1" fold="1" page="1" pageScale="1" pageWidth="827" pageHeight="1169" math="0" shadow="0">
      <root>
        <mxCell id="0" />
        <mxCell id="1" parent="0" />
        <mxCell id="pQJyKxE98RG4ciC6QEuW-39" style="rounded=0;orthogonalLoop=1;jettySize=auto;html=1;exitX=0.5;exitY=1;exitDx=0;exitDy=0;entryX=0.5;entryY=0;entryDx=0;entryDy=0;strokeWidth=3;" parent="1" source="YmbX4Pl8wMP9L46DUGKp-17" target="pQJyKxE98RG4ciC6QEuW-4" edge="1">
          <mxGeometry relative="1" as="geometry">
            <mxPoint x="294.00000000000045" y="510" as="sourcePoint" />
          </mxGeometry>
        </mxCell>
        <mxCell id="pQJyKxE98RG4ciC6QEuW-40" style="rounded=0;orthogonalLoop=1;jettySize=auto;html=1;exitX=0.5;exitY=1;exitDx=0;exitDy=0;entryX=0.5;entryY=0;entryDx=0;entryDy=0;strokeWidth=3;" parent="1" source="YmbX4Pl8wMP9L46DUGKp-17" target="pQJyKxE98RG4ciC6QEuW-8" edge="1">
          <mxGeometry relative="1" as="geometry">
            <mxPoint x="294.00000000000045" y="510" as="sourcePoint" />
          </mxGeometry>
        </mxCell>
        <mxCell id="pQJyKxE98RG4ciC6QEuW-43" style="rounded=0;orthogonalLoop=1;jettySize=auto;html=1;exitX=0.5;exitY=1;exitDx=0;exitDy=0;entryX=0.5;entryY=0;entryDx=0;entryDy=0;strokeWidth=3;" parent="1" source="YmbX4Pl8wMP9L46DUGKp-17" target="pQJyKxE98RG4ciC6QEuW-23" edge="1">
          <mxGeometry relative="1" as="geometry">
            <mxPoint x="319.00000000000045" y="510" as="sourcePoint" />
          </mxGeometry>
        </mxCell>
        <mxCell id="pQJyKxE98RG4ciC6QEuW-47" style="rounded=0;orthogonalLoop=1;jettySize=auto;html=1;exitX=0.5;exitY=1;exitDx=0;exitDy=0;entryX=0.5;entryY=0;entryDx=0;entryDy=0;strokeWidth=3;" parent="1" source="YmbX4Pl8wMP9L46DUGKp-17" target="YmbX4Pl8wMP9L46DUGKp-1" edge="1">
          <mxGeometry relative="1" as="geometry">
            <mxPoint x="369.00000000000045" y="510" as="sourcePoint" />
            <mxPoint x="804" y="580" as="targetPoint" />
          </mxGeometry>
        </mxCell>
        <mxCell id="pQJyKxE98RG4ciC6QEuW-48" style="rounded=0;orthogonalLoop=1;jettySize=auto;html=1;exitX=0.5;exitY=1;exitDx=0;exitDy=0;entryX=0.5;entryY=0;entryDx=0;entryDy=0;strokeWidth=3;" parent="1" source="YmbX4Pl8wMP9L46DUGKp-17" target="pQJyKxE98RG4ciC6QEuW-30" edge="1">
          <mxGeometry relative="1" as="geometry">
            <mxPoint x="394.00000000000045" y="510" as="sourcePoint" />
          </mxGeometry>
        </mxCell>
        <mxCell id="pQJyKxE98RG4ciC6QEuW-49" style="rounded=0;orthogonalLoop=1;jettySize=auto;html=1;exitX=0.5;exitY=1;exitDx=0;exitDy=0;entryX=0.5;entryY=0;entryDx=0;entryDy=0;strokeWidth=3;" parent="1" source="YmbX4Pl8wMP9L46DUGKp-17" target="pQJyKxE98RG4ciC6QEuW-37" edge="1">
          <mxGeometry relative="1" as="geometry">
            <mxPoint x="394.00000000000045" y="510" as="sourcePoint" />
          </mxGeometry>
        </mxCell>
        <mxCell id="pQJyKxE98RG4ciC6QEuW-4" value="일련번호&lt;br&gt;" style="ellipse;whiteSpace=wrap;html=1;align=center;fontStyle=4;strokeWidth=3;" parent="1" vertex="1">
          <mxGeometry x="-52" y="725" width="100" height="40" as="geometry" />
        </mxCell>
        <mxCell id="pQJyKxE98RG4ciC6QEuW-8" value="거래일자&lt;br&gt;" style="ellipse;whiteSpace=wrap;html=1;align=center;strokeWidth=3;" parent="1" vertex="1">
          <mxGeometry x="80" y="695" width="100" height="40" as="geometry" />
        </mxCell>
        <mxCell id="pQJyKxE98RG4ciC6QEuW-23" value="거래시각" style="ellipse;whiteSpace=wrap;html=1;align=center;strokeWidth=3;" parent="1" vertex="1">
          <mxGeometry x="210" y="695" width="100" height="40" as="geometry" />
        </mxCell>
        <mxCell id="pQJyKxE98RG4ciC6QEuW-29" value="수량" style="ellipse;whiteSpace=wrap;html=1;align=center;strokeWidth=3;" parent="1" vertex="1">
          <mxGeometry x="360" y="810" width="100" height="40" as="geometry" />
        </mxCell>
        <mxCell id="pQJyKxE98RG4ciC6QEuW-30" value="매입단가" style="ellipse;whiteSpace=wrap;html=1;align=center;strokeWidth=3;" parent="1" vertex="1">
          <mxGeometry x="430" y="695" width="100" height="40" as="geometry" />
        </mxCell>
        <mxCell id="pQJyKxE98RG4ciC6QEuW-37" value="매출단가&lt;br&gt;" style="ellipse;whiteSpace=wrap;html=1;align=center;strokeWidth=3;" parent="1" vertex="1">
          <mxGeometry x="534" y="725" width="100" height="40" as="geometry" />
        </mxCell>
        <mxCell id="YmbX4Pl8wMP9L46DUGKp-1" value="거래구분" style="ellipse;whiteSpace=wrap;html=1;align=center;strokeWidth=3;" parent="1" vertex="1">
          <mxGeometry x="250" y="820" width="100" height="40" as="geometry" />
        </mxCell>
        <mxCell id="YmbX4Pl8wMP9L46DUGKp-10" style="edgeStyle=none;curved=1;rounded=0;orthogonalLoop=1;jettySize=auto;html=1;exitX=0;exitY=0.5;exitDx=0;exitDy=0;entryX=0.5;entryY=0;entryDx=0;entryDy=0;fontSize=12;startSize=8;endSize=8;strokeWidth=3;" parent="1" source="YmbX4Pl8wMP9L46DUGKp-2" target="YmbX4Pl8wMP9L46DUGKp-3" edge="1">
          <mxGeometry relative="1" as="geometry" />
        </mxCell>
        <mxCell id="YmbX4Pl8wMP9L46DUGKp-12" style="edgeStyle=none;curved=1;rounded=0;orthogonalLoop=1;jettySize=auto;html=1;exitX=0.5;exitY=1;exitDx=0;exitDy=0;entryX=0.5;entryY=0;entryDx=0;entryDy=0;fontSize=12;startSize=8;endSize=8;strokeWidth=3;" parent="1" source="YmbX4Pl8wMP9L46DUGKp-2" target="YmbX4Pl8wMP9L46DUGKp-5" edge="1">
          <mxGeometry relative="1" as="geometry" />
        </mxCell>
        <mxCell id="YmbX4Pl8wMP9L46DUGKp-13" style="edgeStyle=none;curved=1;rounded=0;orthogonalLoop=1;jettySize=auto;html=1;exitX=1;exitY=1;exitDx=0;exitDy=0;entryX=0.5;entryY=0;entryDx=0;entryDy=0;fontSize=12;startSize=8;endSize=8;strokeWidth=3;" parent="1" source="YmbX4Pl8wMP9L46DUGKp-2" target="YmbX4Pl8wMP9L46DUGKp-6" edge="1">
          <mxGeometry relative="1" as="geometry" />
        </mxCell>
        <mxCell id="YmbX4Pl8wMP9L46DUGKp-14" style="edgeStyle=none;curved=1;rounded=0;orthogonalLoop=1;jettySize=auto;html=1;exitX=1;exitY=0.5;exitDx=0;exitDy=0;entryX=0.5;entryY=0;entryDx=0;entryDy=0;fontSize=12;startSize=8;endSize=8;strokeWidth=3;" parent="1" source="YmbX4Pl8wMP9L46DUGKp-2" target="YmbX4Pl8wMP9L46DUGKp-7" edge="1">
          <mxGeometry relative="1" as="geometry" />
        </mxCell>
        <mxCell id="YmbX4Pl8wMP9L46DUGKp-2" value="상품&lt;br&gt;" style="whiteSpace=wrap;html=1;align=center;fontSize=16;strokeWidth=3;" parent="1" vertex="1">
          <mxGeometry x="-380" y="500" width="100" height="40" as="geometry" />
        </mxCell>
        <mxCell id="YmbX4Pl8wMP9L46DUGKp-3" value="상품코드" style="ellipse;whiteSpace=wrap;html=1;align=center;fontStyle=4;fontSize=16;strokeWidth=3;" parent="1" vertex="1">
          <mxGeometry x="-660" y="610" width="100" height="40" as="geometry" />
        </mxCell>
        <mxCell id="YmbX4Pl8wMP9L46DUGKp-4" value="상품명&lt;br&gt;" style="ellipse;whiteSpace=wrap;html=1;align=center;fontSize=16;strokeWidth=3;" parent="1" vertex="1">
          <mxGeometry x="-540" y="610" width="100" height="40" as="geometry" />
        </mxCell>
        <mxCell id="YmbX4Pl8wMP9L46DUGKp-5" value="품목" style="ellipse;whiteSpace=wrap;html=1;align=center;fontSize=16;strokeWidth=3;" parent="1" vertex="1">
          <mxGeometry x="-410" y="610" width="100" height="40" as="geometry" />
        </mxCell>
        <mxCell id="YmbX4Pl8wMP9L46DUGKp-6" value="규격" style="ellipse;whiteSpace=wrap;html=1;align=center;fontSize=16;strokeWidth=3;" parent="1" vertex="1">
          <mxGeometry x="-280" y="610" width="100" height="40" as="geometry" />
        </mxCell>
        <mxCell id="YmbX4Pl8wMP9L46DUGKp-7" value="제조사" style="ellipse;whiteSpace=wrap;html=1;align=center;fontSize=16;strokeWidth=3;" parent="1" vertex="1">
          <mxGeometry x="-170" y="610" width="100" height="40" as="geometry" />
        </mxCell>
        <mxCell id="YmbX4Pl8wMP9L46DUGKp-11" style="edgeStyle=none;curved=1;rounded=0;orthogonalLoop=1;jettySize=auto;html=1;exitX=0;exitY=1;exitDx=0;exitDy=0;entryX=0.402;entryY=0.075;entryDx=0;entryDy=0;entryPerimeter=0;fontSize=12;startSize=8;endSize=8;strokeWidth=3;" parent="1" source="YmbX4Pl8wMP9L46DUGKp-2" target="YmbX4Pl8wMP9L46DUGKp-4" edge="1">
          <mxGeometry relative="1" as="geometry" />
        </mxCell>
        <mxCell id="YmbX4Pl8wMP9L46DUGKp-15" value="" style="edgeStyle=entityRelationEdgeStyle;fontSize=12;html=1;endArrow=ERoneToMany;rounded=0;startSize=8;endSize=8;curved=1;entryX=0;entryY=0.5;entryDx=0;entryDy=0;exitX=0.5;exitY=0;exitDx=0;exitDy=0;strokeWidth=3;fillColor=#0050ef;strokeColor=#001DBC;" parent="1" source="YmbX4Pl8wMP9L46DUGKp-2" target="YmbX4Pl8wMP9L46DUGKp-17" edge="1">
          <mxGeometry width="100" height="100" relative="1" as="geometry">
            <mxPoint x="30" y="430" as="sourcePoint" />
            <mxPoint x="294.00000000000045" y="490" as="targetPoint" />
          </mxGeometry>
        </mxCell>
        <mxCell id="YmbX4Pl8wMP9L46DUGKp-18" style="edgeStyle=none;curved=1;rounded=0;orthogonalLoop=1;jettySize=auto;html=1;exitX=0.5;exitY=1;exitDx=0;exitDy=0;entryX=0.5;entryY=0;entryDx=0;entryDy=0;fontSize=12;startSize=8;endSize=8;strokeWidth=3;" parent="1" source="YmbX4Pl8wMP9L46DUGKp-17" target="pQJyKxE98RG4ciC6QEuW-29" edge="1">
          <mxGeometry relative="1" as="geometry" />
        </mxCell>
        <mxCell id="YmbX4Pl8wMP9L46DUGKp-17" value="매입매출&lt;br&gt;" style="shape=rhombus;perimeter=rhombusPerimeter;whiteSpace=wrap;html=1;align=center;fontSize=16;" parent="1" vertex="1">
          <mxGeometry x="340" y="360" width="120" height="60" as="geometry" />
        </mxCell>
        <mxCell id="FdrjEFfm6dHLRwkYKro0-1" value="상품(테이블)과&lt;br&gt;매입매출간에 관계설정&lt;br&gt;매입매출 테이블을 Relation 으로 변환&lt;br&gt;상품(테이블)의 상품코드 칼럼이&lt;br&gt;매입매출 Relation에 &lt;br&gt;자동으로 추가된다" style="rounded=0;whiteSpace=wrap;html=1;fontSize=16;fillColor=#008a00;fontColor=#ffffff;strokeColor=#005700;" parent="1" vertex="1">
          <mxGeometry x="-550" y="330" width="360" height="120" as="geometry" />
        </mxCell>
        <mxCell id="VpidW-2opCjVgh02ENmp-10" style="edgeStyle=none;curved=1;rounded=0;orthogonalLoop=1;jettySize=auto;html=1;exitX=0.25;exitY=1;exitDx=0;exitDy=0;entryX=0.5;entryY=0;entryDx=0;entryDy=0;fontSize=12;startSize=8;endSize=8;strokeWidth=3;" edge="1" parent="1" source="VpidW-2opCjVgh02ENmp-1" target="VpidW-2opCjVgh02ENmp-4">
          <mxGeometry relative="1" as="geometry" />
        </mxCell>
        <mxCell id="VpidW-2opCjVgh02ENmp-11" style="edgeStyle=none;curved=1;rounded=0;orthogonalLoop=1;jettySize=auto;html=1;exitX=0.5;exitY=1;exitDx=0;exitDy=0;fontSize=12;startSize=8;endSize=8;strokeWidth=3;" edge="1" parent="1" source="VpidW-2opCjVgh02ENmp-1" target="VpidW-2opCjVgh02ENmp-7">
          <mxGeometry relative="1" as="geometry" />
        </mxCell>
        <mxCell id="VpidW-2opCjVgh02ENmp-12" style="edgeStyle=none;curved=1;rounded=0;orthogonalLoop=1;jettySize=auto;html=1;exitX=0.75;exitY=1;exitDx=0;exitDy=0;entryX=0.5;entryY=0;entryDx=0;entryDy=0;fontSize=12;startSize=8;endSize=8;strokeWidth=3;" edge="1" parent="1" source="VpidW-2opCjVgh02ENmp-1" target="VpidW-2opCjVgh02ENmp-6">
          <mxGeometry relative="1" as="geometry" />
        </mxCell>
        <mxCell id="VpidW-2opCjVgh02ENmp-14" style="edgeStyle=none;curved=1;rounded=0;orthogonalLoop=1;jettySize=auto;html=1;exitX=0.75;exitY=1;exitDx=0;exitDy=0;entryX=0.5;entryY=0;entryDx=0;entryDy=0;fontSize=12;startSize=8;endSize=8;strokeWidth=3;" edge="1" parent="1" source="VpidW-2opCjVgh02ENmp-1" target="VpidW-2opCjVgh02ENmp-8">
          <mxGeometry relative="1" as="geometry" />
        </mxCell>
        <mxCell id="VpidW-2opCjVgh02ENmp-15" style="edgeStyle=none;curved=1;rounded=0;orthogonalLoop=1;jettySize=auto;html=1;exitX=1;exitY=1;exitDx=0;exitDy=0;entryX=0.5;entryY=0;entryDx=0;entryDy=0;fontSize=12;startSize=8;endSize=8;strokeWidth=3;" edge="1" parent="1" source="VpidW-2opCjVgh02ENmp-1" target="VpidW-2opCjVgh02ENmp-9">
          <mxGeometry relative="1" as="geometry" />
        </mxCell>
        <mxCell id="VpidW-2opCjVgh02ENmp-1" value="거래처&lt;br&gt;" style="whiteSpace=wrap;html=1;align=center;fontSize=16;strokeWidth=3;" vertex="1" parent="1">
          <mxGeometry x="710" y="370" width="100" height="40" as="geometry" />
        </mxCell>
        <mxCell id="VpidW-2opCjVgh02ENmp-2" value="" style="edgeStyle=entityRelationEdgeStyle;fontSize=12;html=1;endArrow=ERoneToMany;rounded=0;startSize=8;endSize=8;curved=1;exitX=0;exitY=0.5;exitDx=0;exitDy=0;entryX=1;entryY=0.5;entryDx=0;entryDy=0;strokeWidth=3;fillColor=#0050ef;strokeColor=#001DBC;" edge="1" parent="1" source="VpidW-2opCjVgh02ENmp-1" target="YmbX4Pl8wMP9L46DUGKp-17">
          <mxGeometry width="100" height="100" relative="1" as="geometry">
            <mxPoint x="570" y="430" as="sourcePoint" />
            <mxPoint x="670" y="330" as="targetPoint" />
          </mxGeometry>
        </mxCell>
        <mxCell id="VpidW-2opCjVgh02ENmp-4" value="코드&lt;br&gt;" style="ellipse;whiteSpace=wrap;html=1;align=center;fontStyle=4;fontSize=16;strokeWidth=3;" vertex="1" parent="1">
          <mxGeometry x="610" y="560" width="100" height="40" as="geometry" />
        </mxCell>
        <mxCell id="VpidW-2opCjVgh02ENmp-6" value="대표자명" style="ellipse;whiteSpace=wrap;html=1;align=center;fontSize=16;strokeWidth=3;" vertex="1" parent="1">
          <mxGeometry x="814" y="560" width="100" height="40" as="geometry" />
        </mxCell>
        <mxCell id="VpidW-2opCjVgh02ENmp-7" value="거래처명" style="ellipse;whiteSpace=wrap;html=1;align=center;fontSize=16;strokeWidth=3;" vertex="1" parent="1">
          <mxGeometry x="714" y="570" width="100" height="40" as="geometry" />
        </mxCell>
        <mxCell id="VpidW-2opCjVgh02ENmp-8" value="전화번호" style="ellipse;whiteSpace=wrap;html=1;align=center;fontSize=16;strokeWidth=3;" vertex="1" parent="1">
          <mxGeometry x="954" y="560" width="100" height="40" as="geometry" />
        </mxCell>
        <mxCell id="VpidW-2opCjVgh02ENmp-9" value="주소&lt;br&gt;" style="ellipse;whiteSpace=wrap;html=1;align=center;fontSize=16;strokeWidth=3;" vertex="1" parent="1">
          <mxGeometry x="1074" y="550" width="100" height="40" as="geometry" />
        </mxCell>
      </root>
    </mxGraphModel>
  </diagram>
</mxfile>
